<svg width="141" height="37" viewBox="0 0 141 37" fill="none" xmlns="http://www.w3.org/2000/svg">
<path d="M36.5684 31.8934H44.5166C48.4345 31.8934 50.6832 29.8004 50.6832 26.9376C50.6832 24.3775 48.8237 22.7689 46.6788 22.6737V22.5007C48.6248 22.0943 49.9913 20.6845 49.9913 18.6607C49.9913 15.9882 47.9329 14.1806 43.9544 14.1806H36.5684V31.8934ZM40.8495 28.4425V24.2219H43.5739C45.2085 24.2219 46.2118 25.0867 46.2118 26.4446C46.2118 27.6987 45.3469 28.4425 43.4961 28.4425H40.8495ZM40.8495 21.4629V17.5796H43.2885C44.7155 17.5796 45.6237 18.3147 45.6237 19.491C45.6237 20.7364 44.6204 21.4629 43.2193 21.4629H40.8495ZM56.5731 31.8934L57.7407 28.1744H63.8554L65.023 31.8934L69.6242 31.8934L63.6478 14.1806L57.9482 14.1806L51.9719 31.8934H56.5731ZM58.7612 24.9224L60.7245 18.6434H60.8629L62.8348 24.9224H58.7612ZM71.5312 31.8934H75.8124V27.0933L77.5249 24.9311L81.9358 31.8934H87.0559L80.6644 22.0856L86.9434 14.1806H81.9012L76.0459 21.6705H75.8124V14.1806L71.5312 14.1806V31.8934ZM99.348 14.1806V25.2338C99.348 27.076 98.042 28.3992 96.1306 28.3992C94.2106 28.3992 92.9133 27.076 92.9133 25.2338V14.1806H88.6321V25.6057C88.6321 29.5668 91.6246 32.1182 96.1306 32.1182C100.602 32.1182 103.621 29.5668 103.621 25.6057V14.1806H99.348ZM106.304 31.8934H110.585V25.8305H112.782L116.016 31.8934H120.687L117.011 25.1473C118.957 24.2651 120.081 22.5267 120.081 20.0791C120.081 16.4379 117.599 14.1806 113.621 14.1806H106.304V31.8934ZM110.585 22.4575V17.6315H112.695C114.615 17.6315 115.645 18.4358 115.645 20.0791C115.645 21.7224 114.615 22.4575 112.695 22.4575H110.585ZM126.261 31.8934L127.429 28.1744L133.543 28.1744L134.711 31.8934H139.312L133.336 14.1806H127.636L121.66 31.8934H126.261ZM128.449 24.9224L130.412 18.6434H130.551L132.523 24.9224L128.449 24.9224Z" fill="#252526"/>
<path fill-rule="evenodd" clip-rule="evenodd" d="M6.08877 12.6449L6.08877 0.467407L0 0.467407L0 23.5178C0 27.6011 3.31019 30.9113 7.39351 30.9113H18.2663V24.8225L18.2663 20.0385C18.2663 15.9551 14.9561 12.6449 10.8728 12.6449H6.08877ZM6.08877 18.7337V23.5178C6.08877 24.2383 6.67292 24.8225 7.39351 24.8225H12.1775V20.0385C12.1775 19.3179 11.5934 18.7337 10.8728 18.7337H6.08877Z" fill="#252526"/>
<path d="M27.3994 30.9113V7.86091C27.3994 5.45895 25.4522 3.51178 23.0503 3.51178H-5.62966e-05" stroke="#252526" stroke-width="6.08877"/>
</svg>
